<svg xmlns="http://www.w3.org/2000/svg" width="26.216ex" height="5.756ex" role="img" focusable="false" viewBox="0 -1342 11587.4 2544" xmlns:xlink="http://www.w3.org/1999/xlink" aria-hidden="true" style="vertical-align: -2.719ex;"><defs><path id="MJX-6-TEX-N-3D" d="M56 347Q56 360 70 367H707Q722 359 722 347Q722 336 708 328L390 327H72Q56 332 56 347ZM56 153Q56 168 72 173H708Q722 163 722 153Q722 140 707 133H70Q56 140 56 153Z"></path><path id="MJX-6-TEX-N-31" d="M213 578L200 573Q186 568 160 563T102 556H83V602H102Q149 604 189 617T245 641T273 663Q275 666 285 666Q294 666 302 660V361L303 61Q310 54 315 52T339 48T401 46H427V0H416Q395 3 257 3Q121 3 100 0H88V46H114Q136 46 152 46T177 47T193 50T201 52T207 57T213 61V578Z"></path><path id="MJX-6-TEX-N-74" d="M27 422Q80 426 109 478T141 600V615H181V431H316V385H181V241Q182 116 182 100T189 68Q203 29 238 29Q282 29 292 100Q293 108 293 146V181H333V146V134Q333 57 291 17Q264 -10 221 -10Q187 -10 162 2T124 33T105 68T98 100Q97 107 97 248V385H18V422H27Z"></path><path id="MJX-6-TEX-N-61" d="M137 305T115 305T78 320T63 359Q63 394 97 421T218 448Q291 448 336 416T396 340Q401 326 401 309T402 194V124Q402 76 407 58T428 40Q443 40 448 56T453 109V145H493V106Q492 66 490 59Q481 29 455 12T400 -6T353 12T329 54V58L327 55Q325 52 322 49T314 40T302 29T287 17T269 6T247 -2T221 -8T190 -11Q130 -11 82 20T34 107Q34 128 41 147T68 188T116 225T194 253T304 268H318V290Q318 324 312 340Q290 411 215 411Q197 411 181 410T156 406T148 403Q170 388 170 359Q170 334 154 320ZM126 106Q126 75 150 51T209 26Q247 26 276 49T315 109Q317 116 318 175Q318 233 317 233Q309 233 296 232T251 223T193 203T147 166T126 106Z"></path><path id="MJX-6-TEX-N-6E" d="M41 46H55Q94 46 102 60V68Q102 77 102 91T102 122T103 161T103 203Q103 234 103 269T102 328V351Q99 370 88 376T43 385H25V408Q25 431 27 431L37 432Q47 433 65 434T102 436Q119 437 138 438T167 441T178 442H181V402Q181 364 182 364T187 369T199 384T218 402T247 421T285 437Q305 442 336 442Q450 438 463 329Q464 322 464 190V104Q464 66 466 59T477 49Q498 46 526 46H542V0H534L510 1Q487 2 460 2T422 3Q319 3 310 0H302V46H318Q379 46 379 62Q380 64 380 200Q379 335 378 343Q372 371 358 385T334 402T308 404Q263 404 229 370Q202 343 195 315T187 232V168V108Q187 78 188 68T191 55T200 49Q221 46 249 46H265V0H257L234 1Q210 2 183 2T145 3Q42 3 33 0H25V46H41Z"></path><path id="MJX-6-TEX-N-2061" d=""></path><path id="MJX-6-TEX-SO-28" d="M152 251Q152 646 388 850H416Q422 844 422 841Q422 837 403 816T357 753T302 649T255 482T236 250Q236 124 255 19T301 -147T356 -251T403 -315T422 -340Q422 -343 416 -349H388Q359 -325 332 -296T271 -213T212 -97T170 56T152 251Z"></path><path id="MJX-6-TEX-N-46" d="M128 619Q121 626 117 628T101 631T58 634H25V680H582V676Q584 670 596 560T610 444V440H570V444Q563 493 561 501Q555 538 543 563T516 601T477 622T431 631T374 633H334H286Q252 633 244 631T233 621Q232 619 232 490V363H284Q287 363 303 363T327 364T349 367T372 373T389 385Q407 403 410 459V480H450V200H410V221Q407 276 389 296Q381 303 371 307T348 313T327 316T303 317T284 317H232V189L233 61Q240 54 245 52T270 48T333 46H360V0H348Q324 3 182 3Q51 3 36 0H25V46H58Q100 47 109 49T128 61V619Z"></path><path id="MJX-6-TEX-N-4F" d="M56 340Q56 423 86 494T164 610T270 680T388 705Q521 705 621 601T722 341Q722 260 693 191T617 75T510 4T388 -22T267 3T160 74T85 189T56 340ZM467 647Q426 665 388 665Q360 665 331 654T269 620T213 549T179 439Q174 411 174 354Q174 144 277 61Q327 20 385 20H389H391Q474 20 537 99Q603 188 603 354Q603 411 598 439Q577 592 467 647Z"></path><path id="MJX-6-TEX-N-56" d="M114 620Q113 621 110 624T107 627T103 630T98 632T91 634T80 635T67 636T48 637H19V683H28Q46 680 152 680Q273 680 294 683H305V637H284Q223 634 223 620Q223 618 313 372T404 126L490 358Q575 588 575 597Q575 616 554 626T508 637H503V683H512Q527 680 627 680Q718 680 724 683H730V637H723Q648 637 627 596Q627 595 515 291T401 -14Q396 -22 382 -22H374H367Q353 -22 348 -14Q346 -12 231 303Q114 617 114 620Z"></path><path id="MJX-6-TEX-N-32" d="M109 429Q82 429 66 447T50 491Q50 562 103 614T235 666Q326 666 387 610T449 465Q449 422 429 383T381 315T301 241Q265 210 201 149L142 93L218 92Q375 92 385 97Q392 99 409 186V189H449V186Q448 183 436 95T421 3V0H50V19V31Q50 38 56 46T86 81Q115 113 136 137Q145 147 170 174T204 211T233 244T261 278T284 308T305 340T320 369T333 401T340 431T343 464Q343 527 309 573T212 619Q179 619 154 602T119 569T109 550Q109 549 114 549Q132 549 151 535T170 489Q170 464 154 447T109 429Z"></path><path id="MJX-6-TEX-SO-29" d="M305 251Q305 -145 69 -349H56Q43 -349 39 -347T35 -338Q37 -333 60 -307T108 -239T160 -136T204 27T221 250T204 473T160 636T108 740T60 807T35 839Q35 850 50 850H56H69Q197 743 256 566Q305 425 305 251Z"></path></defs><g stroke="currentColor" fill="currentColor" stroke-width="0" transform="scale(1,-1)"><g data-mml-node="math"><g data-mml-node="mtext"><text data-variant="normal" transform="scale(1,-1)" font-size="884px" font-family="serif">垂</text><text data-variant="normal" transform="translate(884,0) scale(1,-1)" font-size="884px" font-family="serif">直</text><text data-variant="normal" transform="translate(1768,0) scale(1,-1)" font-size="884px" font-family="serif">縮</text><text data-variant="normal" transform="translate(2652,0) scale(1,-1)" font-size="884px" font-family="serif">放</text><text data-variant="normal" transform="translate(3536,0) scale(1,-1)" font-size="884px" font-family="serif">因</text><text data-variant="normal" transform="translate(4420,0) scale(1,-1)" font-size="884px" font-family="serif">子</text></g><g data-mml-node="mo" transform="translate(5581.8,0)"><use data-c="3D" xlink:href="#MJX-6-TEX-N-3D"></use></g><g data-mml-node="mfrac" transform="translate(6637.6,0)"><g data-mml-node="mn" transform="translate(2224.9,676)"><use data-c="31" xlink:href="#MJX-6-TEX-N-31"></use></g><g data-mml-node="mrow" transform="translate(220,-852.5)"><g data-mml-node="mi"><use data-c="74" xlink:href="#MJX-6-TEX-N-74"></use><use data-c="61" xlink:href="#MJX-6-TEX-N-61" transform="translate(389,0)"></use><use data-c="6E" xlink:href="#MJX-6-TEX-N-6E" transform="translate(889,0)"></use></g><g data-mml-node="mo" transform="translate(1445,0)"><use data-c="2061" xlink:href="#MJX-6-TEX-N-2061"></use></g><g data-mml-node="mrow" transform="translate(1611.7,0)"><g data-mml-node="mo" transform="translate(0 -0.5)"><use data-c="28" xlink:href="#MJX-6-TEX-SO-28"></use></g><g data-mml-node="mfrac" transform="translate(458,0)"><g data-mml-node="mtext" transform="translate(220,394) scale(0.707)"><use data-c="46" xlink:href="#MJX-6-TEX-N-46"></use><use data-c="4F" xlink:href="#MJX-6-TEX-N-4F" transform="translate(653,0)"></use><use data-c="56" xlink:href="#MJX-6-TEX-N-56" transform="translate(1431,0)"></use></g><g data-mml-node="mn" transform="translate(814.3,-345) scale(0.707)"><use data-c="32" xlink:href="#MJX-6-TEX-N-32"></use></g><rect width="1742.2" height="60" x="120" y="220"></rect></g><g data-mml-node="mo" transform="translate(2440.2,0) translate(0 -0.5)"><use data-c="29" xlink:href="#MJX-6-TEX-SO-29"></use></g></g></g><rect width="4709.9" height="60" x="120" y="220"></rect></g></g></g></svg>